<?xml version="1.0" encoding="UTF-8" standalone="no"?>
<!-- Generator: Adobe Illustrator 16.0.0, SVG Export Plug-In . SVG Version: 6.00 Build 0)  -->

<svg
   xmlns:dc="http://purl.org/dc/elements/1.1/"
   xmlns:cc="http://creativecommons.org/ns#"
   xmlns:rdf="http://www.w3.org/1999/02/22-rdf-syntax-ns#"
   xmlns:svg="http://www.w3.org/2000/svg"
   xmlns="http://www.w3.org/2000/svg"
   xmlns:xlink="http://www.w3.org/1999/xlink"
   xmlns:sodipodi="http://sodipodi.sourceforge.net/DTD/sodipodi-0.dtd"
   xmlns:inkscape="http://www.inkscape.org/namespaces/inkscape"
   version="1.1"
   id="Layer_1"
   x="0px"
   y="0px"
   width="377.49399"
   height="571.85901"
   viewBox="0 0 377.49399 571.85901"
   enable-background="new 0 0 800 600"
   xml:space="preserve"
   inkscape:version="0.48.3.1 r9886"
   sodipodi:docname="GM - Whole logo(Vector).svg"><metadata
   id="metadata95"><rdf:RDF><cc:Work
       rdf:about=""><dc:format>image/svg+xml</dc:format><dc:type
         rdf:resource="http://purl.org/dc/dcmitype/StillImage" /><dc:title></dc:title></cc:Work></rdf:RDF></metadata><defs
   id="defs93" /><sodipodi:namedview
   pagecolor="#ffffff"
   bordercolor="#666666"
   borderopacity="1"
   objecttolerance="10"
   gridtolerance="10"
   guidetolerance="10"
   inkscape:pageopacity="0"
   inkscape:pageshadow="2"
   inkscape:window-width="1366"
   inkscape:window-height="745"
   id="namedview91"
   showgrid="false"
   fit-margin-top="0"
   fit-margin-left="0"
   fit-margin-right="0"
   fit-margin-bottom="0"
   inkscape:zoom="0.3275"
   inkscape:cx="391.954"
   inkscape:cy="278.859"
   inkscape:window-x="0"
   inkscape:window-y="0"
   inkscape:window-maximized="1"
   inkscape:current-layer="Layer_1" />
<path
   d="m 300.902,254.044 -36.149,-8.839 c 0,0 -19.997,57.264 -56.507,78.399 -36.51,21.138 -5.386,-111.451 -5.386,-111.451 l -22.293,6.534 c 0,0 -13.453,68.793 -24.983,79.553 -11.527,10.762 -34.588,-51.498 -34.588,-51.498 l -20.177,54.189 c 0,0 58.224,-1.152 67.447,88.393 l 5.113,101.789 c -12.775,8.252 -20.538,22.606 -20.538,38.944 0,18.456 10.113,34.338 27.113,41.802 v -42.998 l 18.498,-11.545 18.502,11.545 v 42.958 c 16,-7.479 27.114,-23.341 27.114,-41.762 0.004,-16.401 -8.132,-30.792 -20.986,-39.032 l 3.748,-98.122 c 0.959,-28.726 18.796,-102.808 74.072,-138.859 z"
   id="path3"
   inkscape:connector-curvature="0"
   style="fill:#8c6239" />

<g
   id="g17"
   style="opacity:0.03999999"
   transform="translate(-8.046,-7)">
	<defs
   id="defs19">
		<rect
   id="SVGID_1_"
   x="108"
   y="220"
   width="99"
   height="358"
   style="opacity:0.03999999" />
	</defs>
	<clipPath
   id="SVGID_2_">
		<use
   xlink:href="#SVGID_1_"
   overflow="visible"
   id="use23"
   style="overflow:visible"
   x="0"
   y="0"
   width="800"
   height="600" />
	</clipPath>
	<path
   clip-path="url(#SVGID_2_)"
   d="M 308.948,261.044 272.8,252.205 c 0,0 -19.998,57.264 -56.508,78.399 -36.51,21.138 -5.386,-111.451 -5.386,-111.451 l -22.293,6.534 c 0,0 -13.453,68.793 -24.983,79.553 -11.527,10.762 -34.588,-51.498 -34.588,-51.498 l -20.177,54.189 c 0,0 58.224,-1.152 67.447,88.393 l 5.113,101.789 c -12.775,8.252 -20.538,22.606 -20.538,38.944 0,18.456 10.113,34.338 27.113,41.802 V 535.861 L 206.498,524.316 225,535.861 v 42.958 c 16,-7.479 27.115,-23.341 27.115,-41.762 0.004,-16.401 -8.133,-30.792 -20.987,-39.032 l 3.748,-98.122 c 0.957,-28.726 18.795,-102.808 74.072,-138.859 z"
   id="path25"
   inkscape:connector-curvature="0" />
</g>
<path
   d="m 372.71,156.742 c -0.706,-21.908 -8.499,-42.015 -21.176,-58.114 0.361,-2.404 0.55,-4.863 0.55,-7.366 0,-26.158 -20.388,-47.541 -46.139,-49.152 C 292.369,21.438 268.993,7.777 242.414,7.777 c -6.317,0 -12.45,0.783 -18.318,2.237 -1.009,-0.578 -2.049,-1.107 -3.087,-1.64 C 210.629,3.045 198.884,0 186.413,0 c -16.607,0 -31.959,5.346 -44.461,14.389 -5.021,-1.265 -10.275,-1.944 -15.688,-1.944 -35.369,0 -64.039,28.67 -64.039,64.039 0,1.026 0.029,2.045 0.077,3.06 -27.975,4.399 -49.418,28.417 -49.834,57.528 -7.834,10.806 -12.466,24.084 -12.466,38.452 0,18.248 7.456,34.749 19.482,46.64 -1.546,5.974 -2.371,12.238 -2.371,18.694 0,41.096 33.313,74.41 74.408,74.41 28.526,0 53.277,-16.063 65.76,-39.627 2.339,1.757 5.239,2.811 8.392,2.811 5.485,0 10.221,-3.162 12.517,-7.757 12.833,6.94 27.368,11.11 42.819,11.771 1.422,0.06 2.841,0.135 4.278,0.135 24.818,0 47.49,-9.128 64.894,-24.181 3.704,0.555 7.49,0.848 11.347,0.848 41.954,0 75.966,-34.01 75.966,-75.966 0,-9.345 -1.699,-18.291 -4.784,-26.56 z"
   id="path27"
   inkscape:connector-curvature="0"
   style="fill:#7ac943" />
<g
   id="g29"
   style="opacity:0.02999998"
   transform="translate(-8.046,-7)">
	<defs
   id="defs31">
		<rect
   id="SVGID_3_"
   x="6"
   y="7"
   width="200.54401"
   height="315.14099"
   style="opacity:0.02999998" />
	</defs>
	<clipPath
   id="SVGID_4_">
		<use
   xlink:href="#SVGID_3_"
   overflow="visible"
   id="use35"
   style="overflow:visible"
   x="0"
   y="0"
   width="800"
   height="600" />
	</clipPath>
	<path
   clip-path="url(#SVGID_4_)"
   d="m 380.756,163.742 c -0.706,-21.908 -8.499,-42.015 -21.177,-58.114 0.362,-2.404 0.551,-4.863 0.551,-7.366 0,-26.158 -20.387,-47.541 -46.139,-49.152 -13.576,-20.672 -36.951,-34.333 -63.529,-34.333 -6.319,0 -12.451,0.783 -18.32,2.237 -1.009,-0.578 -2.048,-1.107 -3.087,-1.64 C 218.675,10.045 206.93,7 194.458,7 c -16.607,0 -31.959,5.346 -44.461,14.389 -5.02,-1.265 -10.276,-1.944 -15.688,-1.944 -35.367,0 -64.039,28.67 -64.039,64.039 0,1.026 0.03,2.045 0.078,3.06 -27.976,4.399 -49.421,28.417 -49.836,57.528 -7.834,10.806 -12.466,24.084 -12.466,38.452 0,18.248 7.456,34.749 19.482,46.64 -1.545,5.974 -2.373,12.238 -2.373,18.694 0,41.096 33.314,74.41 74.409,74.41 28.525,0 53.278,-16.063 65.759,-39.627 2.342,1.757 5.24,2.811 8.393,2.811 5.484,0 10.22,-3.162 12.519,-7.757 12.832,6.94 27.366,11.11 42.818,11.771 1.422,0.06 2.842,0.135 4.276,0.135 24.821,0 47.491,-9.128 64.897,-24.181 3.701,0.555 7.49,0.848 11.347,0.848 41.954,0 75.965,-34.01 75.965,-75.966 0.002,-9.345 -1.697,-18.291 -4.782,-26.56 z"
   id="path37"
   inkscape:connector-curvature="0" />
</g>

<g
   id="g61"
   transform="translate(-8.046,-7)">
</g>
<g
   id="g63"
   transform="translate(-8.046,-7)">
</g>
<g
   id="g65"
   transform="translate(-8.046,-7)">
</g>
<g
   id="g67"
   transform="translate(-8.046,-7)">
</g>
<g
   id="g69"
   transform="translate(-8.046,-7)">
</g>
<g
   id="g71"
   transform="translate(-8.046,-7)">
</g>
<g
   id="g73"
   transform="translate(-8.046,-7)">
</g>
<g
   id="g75"
   transform="translate(-8.046,-7)">
</g>
<g
   id="g77"
   transform="translate(-8.046,-7)">
</g>
<g
   id="g79"
   transform="translate(-8.046,-7)">
</g>
<g
   id="g81"
   transform="translate(-8.046,-7)">
</g>
<g
   id="g83"
   transform="translate(-8.046,-7)">
</g>
<g
   id="g85"
   transform="translate(-8.046,-7)">
</g>
<g
   id="g87"
   transform="translate(-8.046,-7)">
</g>
<g
   id="g89"
   transform="translate(-8.046,-7)">
</g>
</svg>