<?xml version="1.0" encoding="UTF-8" standalone="no"?>
<!-- Generator: Adobe Illustrator 16.0.0, SVG Export Plug-In . SVG Version: 6.00 Build 0)  -->

<svg
   xmlns:dc="http://purl.org/dc/elements/1.1/"
   xmlns:cc="http://creativecommons.org/ns#"
   xmlns:rdf="http://www.w3.org/1999/02/22-rdf-syntax-ns#"
   xmlns:svg="http://www.w3.org/2000/svg"
   xmlns="http://www.w3.org/2000/svg"
   xmlns:sodipodi="http://sodipodi.sourceforge.net/DTD/sodipodi-0.dtd"
   xmlns:inkscape="http://www.inkscape.org/namespaces/inkscape"
   version="1.1"
   id="Layer_1"
   x="0px"
   y="0px"
   width="456.42813"
   height="235.07008"
   viewBox="0 0 456.42813 235.07008"
   enable-background="new 0 0 800 600"
   xml:space="preserve"
   inkscape:version="0.48.3.1 r9886"
   sodipodi:docname="GM - Whole logo(Vector).svg"><metadata
   id="metadata95"><rdf:RDF><cc:Work
       rdf:about=""><dc:format>image/svg+xml</dc:format><dc:type
         rdf:resource="http://purl.org/dc/dcmitype/StillImage" /><dc:title></dc:title></cc:Work></rdf:RDF></metadata><defs
   id="defs93" /><sodipodi:namedview
   pagecolor="#ffffff"
   bordercolor="#666666"
   borderopacity="1"
   objecttolerance="10"
   gridtolerance="10"
   guidetolerance="10"
   inkscape:pageopacity="0"
   inkscape:pageshadow="2"
   inkscape:window-width="640"
   inkscape:window-height="480"
   id="namedview91"
   showgrid="false"
   fit-margin-top="0"
   fit-margin-left="0"
   fit-margin-right="0"
   fit-margin-bottom="0"
   inkscape:zoom="0.3275"
   inkscape:cx="109.3471"
   inkscape:cy="247.057"
   inkscape:window-x="0"
   inkscape:window-y="0"
   inkscape:window-maximized="0"
   inkscape:current-layer="Layer_1" />

<g
   id="g5"
   transform="translate(-290.6529,-311.98692)">
	<path
   d="m 408.268,386.891 0.108,84.396 c 0.045,34.79 -13.619,55.907 -45.716,55.949 -30.077,0.038 -38.855,-18.58 -38.875,-34.292 -0.017,-13.019 6.025,-27.392 26.002,-27.417 11.896,-0.016 20.656,5.135 20.67,15.685 0.002,1.571 -0.22,3.816 -1.114,6.286 -5.169,-5.604 -10.782,-6.271 -14.149,-6.266 -10.325,0.013 -15.03,6.527 -15.019,15.057 0.017,12.794 10.354,22.209 22.474,22.193 10.325,-0.014 21.315,-6.762 21.285,-30.104 l -0.069,-53.421 c -7.837,14.375 -21.072,21.35 -37.457,21.371 -32.995,0.043 -55.701,-27.761 -55.755,-69.958 -0.051,-39.505 19.881,-74.321 67.69,-74.383 21.324,-0.027 45.798,6.899 45.832,32.487 0.01,7.855 -2.221,18.633 -14.566,18.648 -5.387,0.007 -8.083,-2.01 -14.373,-5.817 1.347,-0.002 9.648,-2.706 9.631,-15.949 -0.019,-14.59 -10.352,-20.86 -23.371,-20.844 -29.404,0.038 -43.728,31.929 -43.686,64.476 0.04,31.199 13.314,55.647 35.536,55.619 19.752,-0.025 30.95,-19.567 33.15,-53.913 l 21.772,0.197 z"
   id="path7"
   inkscape:connector-curvature="0"
   style="fill:#1a1a1a" />
	<path
   d="m 444.607,368.438 0.024,18.854 c 6.944,-10.559 13.666,-19.994 26.46,-20.011 10.101,-0.013 14.821,6.042 14.831,13.449 0.012,8.978 -6.719,11.68 -10.31,11.684 -5.163,0.007 -6.067,-5.604 -12.577,-5.595 -6.733,0.009 -13.234,5.853 -18.391,11.247 l 0.106,82.6 -22.445,0.029 -0.145,-112.229 22.447,-0.028 z"
   id="path9"
   inkscape:connector-curvature="0"
   style="fill:#1a1a1a" />
	<path
   d="m 505.748,435.697 c 2.274,23.79 13.056,29.162 25.85,29.146 14.141,-0.019 27.6,-6.994 35.433,-24.512 l 7.183,-0.01 c -7.604,22.007 -28.901,41.562 -51.796,41.592 -20.649,0.026 -40.644,-13.416 -40.693,-51.798 -0.032,-25.139 10.468,-62.861 42.79,-62.902 14.813,-0.02 29.859,5.348 29.891,29.141 0.025,20.875 -18.361,35.938 -48.658,39.343 z m 34.288,-41.569 c -0.015,-11.223 -4.061,-15.931 -11.243,-15.922 -15.712,0.021 -23.31,26.741 -23.281,48.737 21.094,-3.393 34.546,-15.981 34.524,-32.815 z"
   id="path11"
   inkscape:connector-curvature="0"
   style="fill:#1a1a1a" />
	<path
   d="m 588.351,435.59 c 2.274,23.791 13.056,29.163 25.85,29.146 14.141,-0.018 27.6,-6.993 35.433,-24.511 l 7.183,-0.01 c -7.604,22.007 -28.901,41.562 -51.796,41.592 -20.649,0.026 -40.644,-13.416 -40.693,-51.798 -0.032,-25.139 10.468,-62.861 42.79,-62.902 14.813,-0.02 29.859,5.348 29.891,29.141 0.024,20.874 -18.362,35.937 -48.658,39.342 z m 34.288,-41.569 c -0.015,-11.223 -4.061,-15.932 -11.243,-15.922 -15.712,0.021 -23.31,26.741 -23.281,48.737 21.094,-3.393 34.545,-15.981 34.524,-32.815 z"
   id="path13"
   inkscape:connector-curvature="0"
   style="fill:#1a1a1a" />
	<path
   d="m 671.763,368.146 0.021,17.059 c 8.733,-16.396 19.28,-18.205 26.911,-18.215 27.16,-0.035 30.78,22.854 30.804,40.587 0.013,9.876 -1.09,25.364 -1.072,38.383 0.007,5.836 0.248,18.63 11.471,18.615 2.02,-0.002 5.836,-0.456 7.181,-1.805 l 0.002,1.571 c 0.021,15.937 -9.405,17.295 -15.017,17.303 -18.405,0.023 -26.281,-15.903 -26.306,-34.309 -0.007,-5.611 0.631,-32.995 0.623,-39.056 -0.025,-19.303 -6.765,-24.233 -14.396,-24.223 -9.202,0.012 -15.928,6.979 -20.17,24.491 l 0.093,71.826 -22.445,0.029 -0.145,-112.229 22.445,-0.027 z"
   id="path15"
   inkscape:connector-curvature="0"
   style="fill:#1a1a1a" />
</g>



<g
   id="g39"
   transform="translate(-290.6529,-311.98692)">
	<path
   d="m 445.223,522.025 c 0.216,0.546 0.427,1.097 0.633,1.652 0.206,-0.576 0.422,-1.127 0.648,-1.652 0.226,-0.525 0.484,-1.055 0.772,-1.591 l 14.979,-27.207 c 0.267,-0.474 0.545,-0.762 0.833,-0.865 0.288,-0.103 0.7,-0.154 1.235,-0.154 h 4.417 v 44.255 h -5.25 v -32.52 c 0,-0.433 0.01,-0.896 0.03,-1.39 0.02,-0.494 0.052,-0.998 0.093,-1.513 l -15.163,27.67 c -0.515,0.927 -1.235,1.391 -2.162,1.391 h -0.864 c -0.927,0 -1.647,-0.464 -2.162,-1.391 l -15.503,-27.763 c 0.062,0.535 0.108,1.061 0.139,1.575 0.031,0.515 0.047,0.987 0.047,1.42 v 32.52 h -5.25 v -44.255 h 4.416 c 0.535,0 0.946,0.052 1.235,0.154 0.288,0.104 0.565,0.392 0.834,0.865 l 15.286,27.238 c 0.288,0.496 0.541,1.016 0.757,1.561 z"
   id="path41"
   inkscape:connector-curvature="0" />
	<path
   d="m 501.352,536.463 h -2.439 c -0.536,0 -0.968,-0.082 -1.297,-0.247 -0.33,-0.164 -0.546,-0.515 -0.648,-1.05 l -0.618,-2.903 c -0.823,0.741 -1.627,1.405 -2.409,1.992 -0.782,0.587 -1.605,1.081 -2.47,1.482 -0.865,0.401 -1.787,0.705 -2.765,0.911 -0.978,0.205 -2.064,0.309 -3.258,0.309 -1.215,0 -2.353,-0.171 -3.413,-0.511 -1.061,-0.341 -1.981,-0.853 -2.764,-1.534 -0.783,-0.681 -1.405,-1.545 -1.868,-2.588 -0.463,-1.043 -0.695,-2.277 -0.695,-3.703 0,-1.239 0.34,-2.433 1.02,-3.579 0.68,-1.146 1.775,-2.164 3.289,-3.053 1.513,-0.888 3.494,-1.616 5.944,-2.185 2.45,-0.569 5.446,-0.853 8.987,-0.853 v -2.455 c 0,-2.444 -0.521,-4.293 -1.56,-5.547 -1.04,-1.253 -2.579,-1.88 -4.617,-1.88 -1.338,0 -2.466,0.17 -3.382,0.51 -0.916,0.339 -1.709,0.721 -2.378,1.143 -0.669,0.422 -1.245,0.803 -1.729,1.143 -0.483,0.34 -0.962,0.509 -1.436,0.509 -0.371,0 -0.695,-0.097 -0.973,-0.293 -0.278,-0.195 -0.5,-0.438 -0.664,-0.726 l -0.988,-1.761 c 1.729,-1.667 3.593,-2.913 5.59,-3.736 1.997,-0.823 4.21,-1.235 6.64,-1.235 1.75,0 3.305,0.288 4.663,0.864 1.359,0.577 2.502,1.38 3.428,2.409 0.927,1.029 1.627,2.275 2.101,3.737 0.474,1.462 0.71,3.067 0.71,4.817 v 20.013 z m -14.268,-3.366 c 0.968,0 1.853,-0.098 2.656,-0.293 0.803,-0.196 1.56,-0.474 2.27,-0.834 0.71,-0.36 1.39,-0.798 2.038,-1.313 0.648,-0.515 1.282,-1.102 1.899,-1.761 v -6.454 c -2.532,0 -4.684,0.16 -6.454,0.481 -1.771,0.321 -3.212,0.74 -4.324,1.258 -1.111,0.518 -1.92,1.129 -2.424,1.833 -0.505,0.704 -0.757,1.491 -0.757,2.36 0,0.828 0.134,1.543 0.401,2.144 0.267,0.601 0.628,1.093 1.081,1.476 0.452,0.383 0.988,0.663 1.605,0.839 0.619,0.176 1.288,0.264 2.009,0.264 z"
   id="path43"
   inkscape:connector-curvature="0" />
	<path
   d="m 515.371,490.973 v 26.775 h 1.421 c 0.412,0 0.751,-0.057 1.02,-0.17 0.267,-0.113 0.565,-0.345 0.896,-0.694 l 9.882,-10.593 c 0.31,-0.329 0.618,-0.598 0.927,-0.804 0.309,-0.205 0.721,-0.309 1.235,-0.309 h 5.003 l -11.52,12.261 c -0.288,0.351 -0.571,0.659 -0.849,0.926 -0.278,0.269 -0.592,0.505 -0.942,0.711 0.371,0.247 0.705,0.53 1.004,0.849 0.298,0.32 0.581,0.686 0.85,1.097 l 12.229,15.441 h -4.941 c -0.453,0 -0.839,-0.087 -1.158,-0.263 -0.319,-0.175 -0.623,-0.447 -0.911,-0.818 l -10.284,-12.816 c -0.309,-0.432 -0.617,-0.715 -0.926,-0.849 -0.31,-0.134 -0.772,-0.201 -1.39,-0.201 h -1.545 v 14.947 h -5.527 v -45.49 h 5.526 z"
   id="path45"
   inkscape:connector-curvature="0" />
	<path
   d="m 552.689,504.685 c 1.873,0 3.603,0.314 5.188,0.942 1.585,0.628 2.954,1.533 4.107,2.718 1.152,1.184 2.054,2.646 2.702,4.385 0.648,1.74 0.973,3.722 0.973,5.945 0,0.864 -0.093,1.441 -0.277,1.729 -0.186,0.288 -0.536,0.432 -1.051,0.432 h -20.814 c 0.041,1.977 0.309,3.696 0.803,5.158 0.494,1.462 1.174,2.682 2.038,3.659 0.865,0.979 1.895,1.709 3.089,2.192 1.193,0.484 2.532,0.726 4.015,0.726 1.379,0 2.567,-0.159 3.566,-0.479 0.999,-0.318 1.858,-0.664 2.579,-1.034 0.721,-0.371 1.322,-0.715 1.807,-1.035 0.483,-0.318 0.9,-0.479 1.251,-0.479 0.452,0 0.803,0.176 1.05,0.525 l 1.544,2.007 c -0.68,0.824 -1.493,1.54 -2.439,2.146 -0.947,0.607 -1.961,1.107 -3.042,1.498 -1.081,0.392 -2.198,0.685 -3.351,0.88 -1.153,0.195 -2.296,0.294 -3.429,0.294 -2.161,0 -4.153,-0.366 -5.976,-1.097 -1.823,-0.731 -3.396,-1.801 -4.725,-3.212 -1.328,-1.41 -2.362,-3.154 -3.104,-5.234 -0.741,-2.079 -1.112,-4.468 -1.112,-7.165 0,-2.182 0.335,-4.22 1.004,-6.114 0.669,-1.894 1.632,-3.536 2.888,-4.926 1.255,-1.39 2.789,-2.48 4.602,-3.273 1.812,-0.792 3.85,-1.188 6.114,-1.188 z m 0.124,4.045 c -2.656,0 -4.746,0.768 -6.27,2.301 -1.523,1.534 -2.471,3.659 -2.841,6.377 h 17.016 c 0,-1.276 -0.175,-2.444 -0.524,-3.505 -0.351,-1.061 -0.865,-1.977 -1.544,-2.749 -0.68,-0.771 -1.509,-1.368 -2.486,-1.791 -0.978,-0.422 -2.096,-0.633 -3.351,-0.633 z"
   id="path47"
   inkscape:connector-curvature="0" />
	<path
   d="m 572.639,536.463 v -31.284 h 3.15 c 0.597,0 1.008,0.113 1.235,0.34 0.226,0.227 0.381,0.617 0.463,1.174 l 0.37,4.879 c 1.07,-2.182 2.394,-3.886 3.969,-5.11 1.575,-1.226 3.423,-1.838 5.544,-1.838 0.864,0 1.646,0.098 2.347,0.293 0.699,0.196 1.349,0.469 1.945,0.818 l -0.71,4.107 c -0.145,0.516 -0.463,0.772 -0.957,0.772 -0.289,0 -0.731,-0.098 -1.328,-0.294 -0.598,-0.195 -1.432,-0.293 -2.502,-0.293 -1.914,0 -3.516,0.556 -4.802,1.668 -1.287,1.111 -2.362,2.729 -3.228,4.849 v 19.919 h -5.496 z"
   id="path49"
   inkscape:connector-curvature="0" />
	<path
   d="m 615.621,510.336 c -0.247,0.453 -0.629,0.68 -1.143,0.68 -0.309,0 -0.659,-0.113 -1.05,-0.34 -0.392,-0.227 -0.87,-0.479 -1.437,-0.757 -0.566,-0.277 -1.24,-0.535 -2.022,-0.771 -0.783,-0.236 -1.709,-0.355 -2.779,-0.355 -0.927,0 -1.761,0.119 -2.502,0.355 -0.741,0.236 -1.374,0.561 -1.899,0.973 -0.524,0.412 -0.927,0.891 -1.204,1.436 -0.278,0.546 -0.417,1.139 -0.417,1.776 0,0.803 0.231,1.472 0.694,2.007 0.464,0.536 1.076,0.999 1.838,1.39 0.762,0.392 1.626,0.736 2.594,1.035 0.968,0.299 1.962,0.617 2.98,0.957 1.02,0.34 2.013,0.716 2.98,1.127 0.968,0.412 1.832,0.927 2.594,1.545 0.762,0.617 1.375,1.374 1.838,2.27 0.463,0.896 0.694,1.972 0.694,3.228 0,1.441 -0.257,2.774 -0.771,3.999 -0.514,1.225 -1.277,2.285 -2.285,3.181 -1.01,0.896 -2.245,1.602 -3.706,2.115 -1.462,0.515 -3.15,0.772 -5.065,0.772 -2.182,0 -4.158,-0.355 -5.929,-1.065 -1.771,-0.71 -3.273,-1.621 -4.509,-2.733 l 1.297,-2.1 c 0.164,-0.268 0.359,-0.474 0.587,-0.618 0.226,-0.144 0.524,-0.216 0.896,-0.216 0.37,0 0.762,0.145 1.174,0.433 0.411,0.288 0.91,0.607 1.497,0.957 0.587,0.351 1.297,0.669 2.131,0.957 0.834,0.289 1.879,0.433 3.135,0.433 1.07,0 2.008,-0.139 2.811,-0.417 0.803,-0.277 1.472,-0.653 2.007,-1.127 0.535,-0.474 0.932,-1.02 1.189,-1.637 0.257,-0.618 0.386,-1.276 0.386,-1.977 0,-0.864 -0.231,-1.58 -0.694,-2.146 -0.464,-0.565 -1.076,-1.05 -1.838,-1.451 -0.762,-0.401 -1.632,-0.752 -2.609,-1.05 -0.979,-0.299 -1.977,-0.612 -2.996,-0.942 -1.019,-0.329 -2.018,-0.705 -2.995,-1.127 -0.979,-0.422 -1.849,-0.952 -2.609,-1.591 -0.763,-0.638 -1.375,-1.425 -1.838,-2.362 -0.463,-0.937 -0.694,-2.074 -0.694,-3.412 0,-1.194 0.247,-2.342 0.74,-3.444 0.494,-1.101 1.215,-2.068 2.162,-2.902 0.947,-0.834 2.11,-1.498 3.49,-1.992 1.379,-0.494 2.954,-0.741 4.725,-0.741 2.059,0 3.906,0.324 5.544,0.973 1.637,0.648 3.052,1.54 4.246,2.672 l -1.238,2.002 z"
   id="path51"
   inkscape:connector-curvature="0" />
	<path
   d="m 624.193,547.056 v -41.877 h 3.273 c 0.782,0 1.276,0.382 1.482,1.143 l 0.463,3.706 c 1.339,-1.626 2.867,-2.934 4.587,-3.922 1.719,-0.988 3.7,-1.482 5.944,-1.482 1.791,0 3.418,0.345 4.88,1.034 1.461,0.69 2.707,1.709 3.736,3.058 1.029,1.349 1.822,3.021 2.378,5.019 0.556,1.998 0.834,4.293 0.834,6.887 0,2.306 -0.309,4.452 -0.927,6.439 -0.617,1.986 -1.503,3.705 -2.655,5.157 -1.153,1.451 -2.568,2.594 -4.247,3.428 -1.678,0.834 -3.566,1.251 -5.667,1.251 -1.935,0 -3.587,-0.319 -4.956,-0.958 -1.369,-0.638 -2.579,-1.544 -3.629,-2.717 v 13.835 h -5.496 z m 13.928,-37.986 c -1.791,0 -3.361,0.412 -4.709,1.235 -1.349,0.823 -2.59,1.986 -3.722,3.489 v 15.133 c 1.009,1.358 2.115,2.316 3.32,2.872 1.204,0.556 2.548,0.834 4.03,0.834 2.902,0 5.136,-1.04 6.701,-3.119 1.564,-2.08 2.347,-5.044 2.347,-8.895 0,-2.038 -0.18,-3.788 -0.54,-5.25 -0.36,-1.462 -0.88,-2.661 -1.56,-3.598 -0.68,-0.937 -1.514,-1.621 -2.502,-2.054 -0.988,-0.433 -2.109,-0.647 -3.365,-0.647 z"
   id="path53"
   inkscape:connector-curvature="0" />
	<path
   d="m 681.245,536.463 h -2.439 c -0.536,0 -0.968,-0.082 -1.297,-0.247 -0.33,-0.164 -0.546,-0.515 -0.648,-1.05 l -0.618,-2.903 c -0.823,0.741 -1.627,1.405 -2.409,1.992 -0.782,0.587 -1.605,1.081 -2.47,1.482 -0.865,0.401 -1.787,0.705 -2.765,0.911 -0.978,0.205 -2.064,0.309 -3.258,0.309 -1.215,0 -2.353,-0.171 -3.413,-0.511 -1.061,-0.341 -1.981,-0.853 -2.764,-1.534 -0.783,-0.681 -1.405,-1.545 -1.868,-2.588 -0.463,-1.043 -0.695,-2.277 -0.695,-3.703 0,-1.239 0.34,-2.433 1.02,-3.579 0.68,-1.146 1.775,-2.164 3.289,-3.053 1.513,-0.888 3.494,-1.616 5.944,-2.185 2.45,-0.569 5.446,-0.853 8.987,-0.853 v -2.455 c 0,-2.444 -0.521,-4.293 -1.56,-5.547 -1.04,-1.253 -2.579,-1.88 -4.617,-1.88 -1.338,0 -2.466,0.17 -3.382,0.51 -0.916,0.339 -1.709,0.721 -2.378,1.143 -0.669,0.422 -1.245,0.803 -1.729,1.143 -0.483,0.34 -0.962,0.509 -1.436,0.509 -0.371,0 -0.695,-0.097 -0.973,-0.293 -0.278,-0.195 -0.5,-0.438 -0.664,-0.726 l -0.988,-1.761 c 1.729,-1.667 3.593,-2.913 5.59,-3.736 1.997,-0.823 4.21,-1.235 6.64,-1.235 1.75,0 3.305,0.288 4.663,0.864 1.359,0.577 2.502,1.38 3.428,2.409 0.927,1.029 1.627,2.275 2.101,3.737 0.474,1.462 0.71,3.067 0.71,4.817 v 20.013 z m -14.267,-3.366 c 0.968,0 1.853,-0.098 2.656,-0.293 0.803,-0.196 1.56,-0.474 2.27,-0.834 0.71,-0.36 1.39,-0.798 2.038,-1.313 0.648,-0.515 1.282,-1.102 1.899,-1.761 v -6.454 c -2.532,0 -4.684,0.16 -6.454,0.481 -1.771,0.321 -3.212,0.74 -4.324,1.258 -1.111,0.518 -1.92,1.129 -2.424,1.833 -0.505,0.704 -0.757,1.491 -0.757,2.36 0,0.828 0.134,1.543 0.401,2.144 0.267,0.601 0.628,1.093 1.081,1.476 0.452,0.383 0.988,0.663 1.605,0.839 0.619,0.176 1.288,0.264 2.009,0.264 z"
   id="path55"
   inkscape:connector-curvature="0" />
	<path
   d="m 711.392,510.737 c -0.165,0.228 -0.329,0.402 -0.494,0.525 -0.165,0.124 -0.401,0.186 -0.71,0.186 -0.309,0 -0.644,-0.129 -1.004,-0.387 -0.36,-0.257 -0.818,-0.54 -1.374,-0.849 -0.557,-0.309 -1.23,-0.592 -2.023,-0.85 -0.792,-0.257 -1.766,-0.386 -2.918,-0.386 -1.524,0 -2.872,0.273 -4.046,0.818 -1.173,0.546 -2.157,1.333 -2.949,2.362 -0.793,1.03 -1.39,2.275 -1.791,3.737 -0.401,1.462 -0.603,3.099 -0.603,4.91 0,1.895 0.217,3.577 0.648,5.049 0.433,1.473 1.04,2.708 1.822,3.706 0.782,0.999 1.734,1.761 2.856,2.285 1.122,0.525 2.383,0.788 3.783,0.788 1.339,0 2.44,-0.159 3.305,-0.479 0.865,-0.318 1.585,-0.674 2.162,-1.065 0.576,-0.391 1.05,-0.745 1.42,-1.065 0.371,-0.318 0.741,-0.479 1.112,-0.479 0.474,0 0.823,0.176 1.05,0.525 l 1.544,2.007 c -1.358,1.668 -3.057,2.888 -5.096,3.66 -2.038,0.771 -4.189,1.158 -6.454,1.158 -1.956,0 -3.773,-0.36 -5.451,-1.081 -1.678,-0.721 -3.134,-1.766 -4.369,-3.135 -1.235,-1.369 -2.208,-3.052 -2.919,-5.049 -0.71,-1.997 -1.065,-4.272 -1.065,-6.825 0,-2.326 0.324,-4.479 0.973,-6.455 0.649,-1.976 1.596,-3.68 2.842,-5.11 1.245,-1.431 2.784,-2.548 4.616,-3.352 1.833,-0.803 3.933,-1.204 6.301,-1.204 2.182,0 4.117,0.355 5.806,1.065 1.688,0.711 3.181,1.714 4.478,3.012 l -1.452,1.978 z"
   id="path57"
   inkscape:connector-curvature="0" />
	<path
   d="m 730.859,504.685 c 1.873,0 3.603,0.314 5.188,0.942 1.585,0.628 2.954,1.533 4.107,2.718 1.152,1.184 2.054,2.646 2.702,4.385 0.648,1.74 0.973,3.722 0.973,5.945 0,0.864 -0.093,1.441 -0.277,1.729 -0.186,0.288 -0.536,0.432 -1.051,0.432 h -20.814 c 0.041,1.977 0.309,3.696 0.803,5.158 0.494,1.462 1.174,2.682 2.038,3.659 0.865,0.979 1.895,1.709 3.089,2.192 1.193,0.484 2.532,0.726 4.015,0.726 1.379,0 2.567,-0.159 3.566,-0.479 0.999,-0.318 1.858,-0.664 2.579,-1.034 0.721,-0.371 1.322,-0.715 1.807,-1.035 0.483,-0.318 0.9,-0.479 1.251,-0.479 0.452,0 0.803,0.176 1.05,0.525 l 1.544,2.007 c -0.68,0.824 -1.493,1.54 -2.439,2.146 -0.947,0.607 -1.961,1.107 -3.042,1.498 -1.081,0.392 -2.198,0.685 -3.351,0.88 -1.153,0.195 -2.296,0.294 -3.429,0.294 -2.161,0 -4.153,-0.366 -5.976,-1.097 -1.823,-0.731 -3.396,-1.801 -4.725,-3.212 -1.328,-1.41 -2.362,-3.154 -3.104,-5.234 -0.741,-2.079 -1.112,-4.468 -1.112,-7.165 0,-2.182 0.335,-4.22 1.004,-6.114 0.669,-1.894 1.632,-3.536 2.888,-4.926 1.255,-1.39 2.789,-2.48 4.602,-3.273 1.812,-0.792 3.85,-1.188 6.114,-1.188 z m 0.124,4.045 c -2.656,0 -4.746,0.768 -6.27,2.301 -1.523,1.534 -2.471,3.659 -2.841,6.377 h 17.016 c 0,-1.276 -0.175,-2.444 -0.524,-3.505 -0.351,-1.061 -0.865,-1.977 -1.544,-2.749 -0.68,-0.771 -1.509,-1.368 -2.486,-1.791 -0.979,-0.422 -2.096,-0.633 -3.351,-0.633 z"
   id="path59"
   inkscape:connector-curvature="0" />
</g>
<g
   id="g61"
   transform="translate(-290.6529,-311.98692)">
</g>
<g
   id="g63"
   transform="translate(-290.6529,-311.98692)">
</g>
<g
   id="g65"
   transform="translate(-290.6529,-311.98692)">
</g>
<g
   id="g67"
   transform="translate(-290.6529,-311.98692)">
</g>
<g
   id="g69"
   transform="translate(-290.6529,-311.98692)">
</g>
<g
   id="g71"
   transform="translate(-290.6529,-311.98692)">
</g>
<g
   id="g73"
   transform="translate(-290.6529,-311.98692)">
</g>
<g
   id="g75"
   transform="translate(-290.6529,-311.98692)">
</g>
<g
   id="g77"
   transform="translate(-290.6529,-311.98692)">
</g>
<g
   id="g79"
   transform="translate(-290.6529,-311.98692)">
</g>
<g
   id="g81"
   transform="translate(-290.6529,-311.98692)">
</g>
<g
   id="g83"
   transform="translate(-290.6529,-311.98692)">
</g>
<g
   id="g85"
   transform="translate(-290.6529,-311.98692)">
</g>
<g
   id="g87"
   transform="translate(-290.6529,-311.98692)">
</g>
<g
   id="g89"
   transform="translate(-290.6529,-311.98692)">
</g>
</svg>